<mxfile host="app.diagrams.net" modified="2024-04-12T19:05:38.961Z" agent="Mozilla/5.0 (Windows NT 10.0; Win64; x64) AppleWebKit/537.36 (KHTML, like Gecko) Chrome/123.0.0.0 Safari/537.36" version="24.0.7" etag="Zb76zfNoZUvZaNgO88rk" type="github">
  <diagram name="1 oldal" id="wndKltuLntED206q4tXC">
    <mxGraphModel>
      <root>
        <mxCell id="0" />
        <mxCell id="1" parent="0" />
      </root>
    </mxGraphModel>
  </diagram>
</mxfile>
